# xmcd
# 
# Track frame offsets:
#     150
#     23532
#     39518
#     58672
#     84401
# 
# Disc length: 1370
# 
# Revision: 3
# Processed by: cddbd v1.5.2PL0 Copyright (c) Steve Scherf et al.
# Submitted via: fre:ac v1.0.31
# 
DISCID=30055805
DTITLE=Adrian Sherwood - Recovery Time
DYEAR=2012
DGENRE=Misc
TTITLE0=In Full Effect
TTITLE1=An Earful
TTITLE2=Entrapment
TTITLE3=Semistoned
TTITLE4=U.R.Sound (Float Beyond Fear Mix)
EXTD=
EXTT0=
EXTT1=
EXTT2=
EXTT3=
EXTT4=
PLAYORDER=
